<?xml version="1.0" encoding="utf-8"?>
<!-- Generator: Adobe Illustrator 18.1.0, SVG Export Plug-In . SVG Version: 6.00 Build 0)  -->
<svg version="1.1" id="Layer_1" xmlns="http://www.w3.org/2000/svg" xmlns:xlink="http://www.w3.org/1999/xlink" x="0px" y="0px"
	 viewBox="0 0 20 20" enable-background="new 0 0 20 20" xml:space="preserve">
<path fill="#010101" d="M19.3,10c0,5.1-4.1,9.3-9.3,9.3c-5.1,0-9.3-4.1-9.3-9.3c0-5.1,4.1-9.3,9.3-9.3C15.1,0.7,19.3,4.9,19.3,10z"
	/>
<path fill="#FFFFFF" d="M10,20C4.5,20,0,15.5,0,10C0,4.5,4.5,0,10,0c5.5,0,10,4.5,10,10C20,15.5,15.5,20,10,20z"/>
<path d="M10,1.5c-4.7,0-8.5,3.8-8.5,8.5c0,4.7,3.8,8.5,8.5,8.5c4.7,0,8.5-3.8,8.5-8.5C18.5,5.3,14.7,1.5,10,1.5z"/>
<path fill="#F7F8F8" d="M14.4,13.4l-3.4-3.4l3.4-3.4c0.3-0.3,0.3-0.8,0-1.1c-0.3-0.3-0.8-0.3-1.1,0L9.8,8.8L6.4,5.4
	C6.1,5,5.5,5,5.2,5.4c-0.3,0.3-0.3,0.9,0,1.3l3.4,3.4l-3.4,3.4c-0.3,0.3-0.3,0.8,0,1.1c0.2,0.1,0.3,0.2,0.5,0.2s0.4-0.1,0.5-0.2
	l3.4-3.4l3.4,3.4c0.2,0.2,0.4,0.3,0.6,0.3c0.2,0,0.5-0.1,0.6-0.3C14.7,14.3,14.7,13.7,14.4,13.4z"/>
</svg>
